<svg xmlns="http://www.w3.org/2000/svg" xmlns:xlink="http://www.w3.org/1999/xlink" viewBox="0 0 3817.19 1386.44"><defs><style>.cls-1{fill:url(#New_Gradient_Swatch_9);}.cls-2{fill:url(#New_Gradient_Swatch_9-2);}.cls-3{fill:url(#New_Gradient_Swatch_9-3);}.cls-4{fill:url(#New_Gradient_Swatch_9-4);}.cls-5{fill:url(#New_Gradient_Swatch_9-5);}.cls-6{fill:url(#New_Gradient_Swatch_9-6);}.cls-7{fill:url(#New_Gradient_Swatch_9-7);}.cls-8{fill:url(#New_Gradient_Swatch_9-8);}.cls-9{fill:url(#New_Gradient_Swatch_9-9);}.cls-10{fill:url(#New_Gradient_Swatch_9-10);}.cls-11{fill:url(#New_Gradient_Swatch_9-11);}.cls-12{fill:url(#New_Gradient_Swatch_9-12);}.cls-13{fill:url(#New_Gradient_Swatch_9-13);}.cls-14{fill:url(#New_Gradient_Swatch_9-14);}.cls-15{fill:url(#New_Gradient_Swatch_9-15);}.cls-16{fill:url(#New_Gradient_Swatch_9-16);}.cls-17{fill:url(#New_Gradient_Swatch_9-17);}.cls-18{fill:url(#New_Gradient_Swatch_9-18);}.cls-19{fill:url(#New_Gradient_Swatch_9-19);}.cls-20{fill:url(#New_Gradient_Swatch_9-20);}.cls-21{fill:url(#Degradado_sin_nombre_57);}.cls-22{fill:#fff;}.cls-23{fill:#13131d;}</style><linearGradient id="New_Gradient_Swatch_9" y1="693.22" x2="1393.59" y2="693.22" gradientUnits="userSpaceOnUse"><stop offset="0" stop-color="#f63c16"/><stop offset="0.53" stop-color="#a73aca"/><stop offset="1" stop-color="#4c2ebd"/></linearGradient><linearGradient id="New_Gradient_Swatch_9-2" x1="14.13" y1="693.24" x2="1371.64" y2="693.24" xlink:href="#New_Gradient_Swatch_9"/><linearGradient id="New_Gradient_Swatch_9-3" x1="28.27" y1="693.3" x2="1349.68" y2="693.3" xlink:href="#New_Gradient_Swatch_9"/><linearGradient id="New_Gradient_Swatch_9-4" x1="42.41" y1="693.32" x2="1327.72" y2="693.32" xlink:href="#New_Gradient_Swatch_9"/><linearGradient id="New_Gradient_Swatch_9-5" x1="56.83" y1="693.34" x2="1305.77" y2="693.34" xlink:href="#New_Gradient_Swatch_9"/><linearGradient id="New_Gradient_Swatch_9-6" x1="71.12" y1="693.14" x2="1283.2" y2="693.14" xlink:href="#New_Gradient_Swatch_9"/><linearGradient id="New_Gradient_Swatch_9-7" x1="85.75" y1="693.17" x2="1261.27" y2="693.17" xlink:href="#New_Gradient_Swatch_9"/><linearGradient id="New_Gradient_Swatch_9-8" x1="99.87" y1="693.19" x2="1239.35" y2="693.19" xlink:href="#New_Gradient_Swatch_9"/><linearGradient id="New_Gradient_Swatch_9-9" x1="113.99" y1="693.25" x2="1217.42" y2="693.25" xlink:href="#New_Gradient_Swatch_9"/><linearGradient id="New_Gradient_Swatch_9-10" x1="128.13" y1="693.36" x2="1195.06" y2="693.36" xlink:href="#New_Gradient_Swatch_9"/><linearGradient id="New_Gradient_Swatch_9-11" x1="142.89" y1="693.12" x2="1173.17" y2="693.12" xlink:href="#New_Gradient_Swatch_9"/><linearGradient id="New_Gradient_Swatch_9-12" x1="157" y1="693.37" x2="1151.27" y2="693.37" xlink:href="#New_Gradient_Swatch_9"/><linearGradient id="New_Gradient_Swatch_9-13" x1="171.12" y1="693.15" x2="1129.06" y2="693.15" xlink:href="#New_Gradient_Swatch_9"/><linearGradient id="New_Gradient_Swatch_9-14" x1="185.69" y1="693.32" x2="1107.02" y2="693.32" xlink:href="#New_Gradient_Swatch_9"/><linearGradient id="New_Gradient_Swatch_9-15" x1="199.8" y1="693.15" x2="1085.19" y2="693.15" xlink:href="#New_Gradient_Swatch_9"/><linearGradient id="New_Gradient_Swatch_9-16" x1="214.24" y1="693.19" x2="1062.98" y2="693.19" xlink:href="#New_Gradient_Swatch_9"/><linearGradient id="New_Gradient_Swatch_9-17" x1="228.3" y1="693.19" x2="1040.96" y2="693.19" xlink:href="#New_Gradient_Swatch_9"/><linearGradient id="New_Gradient_Swatch_9-18" x1="242.64" y1="693.2" x2="1018.84" y2="693.2" xlink:href="#New_Gradient_Swatch_9"/><linearGradient id="New_Gradient_Swatch_9-19" x1="256.97" y1="693.27" x2="996.86" y2="693.27" xlink:href="#New_Gradient_Swatch_9"/><linearGradient id="New_Gradient_Swatch_9-20" x1="271.17" y1="693.22" x2="974.82" y2="693.22" xlink:href="#New_Gradient_Swatch_9"/><linearGradient id="Degradado_sin_nombre_57" x1="196.79" y1="693.22" x2="1196.79" y2="693.22" gradientUnits="userSpaceOnUse"><stop offset="0.12" stop-color="#ff7f00"/><stop offset="0.51" stop-color="#ff6100"/><stop offset="0.54" stop-color="#fe5c02"/><stop offset="0.69" stop-color="#f9490c"/><stop offset="0.84" stop-color="#f63e11"/><stop offset="1" stop-color="#f53a13"/></linearGradient></defs><g id="Capa_2" data-name="Capa 2"><g id="Capa_1-2" data-name="Capa 1"><path class="cls-1" d="M147.84,1386.44c-25.62,0-52.79-7-81.76-23.34C-95,1272.41,75,952,187.51,740c46.74-88.11,83.66-157.7,83.66-185.17,0-52.48-44.29-80.42-87.11-107.44C138,418.28,90.34,388.22,97.47,327.66c4.25-36,21.22-65.4,50.45-87.3,119.12-89.23,417.59-38.7,578-11.55,51,8.64,87.87,14.85,101.9,13.91C879,239.19,939.2,186.86,1002.9,131.46c81-70.46,164.79-143.34,243.68-129.83,42.4,7.25,78.75,38.52,111.14,95.59,119.51,210.6-89.55,564.06-190,733.93-28.43,48.08-49,82.82-50.45,94.61-.9,7.22,7.94,23.8,19.14,44.79,25.81,48.36,64.8,121.44,42.32,183.09-12.12,33.23-41.17,59.26-86.36,77.38-139.62,56-300.56-12.66-429.88-67.81-72.59-31-135.28-57.71-174.72-52.8C452.9,1114.75,416,1162,373.19,1216.78,312.71,1294.19,240.62,1386.43,147.84,1386.44ZM372,192.89c-90.19,0-172.24,12.57-222.18,50-28.52,21.37-45.08,50-49.21,85.16-6.91,58.61,37.81,86.82,85.14,116.69,43.55,27.48,88.58,55.89,88.58,110.09,0,28.25-37.09,98.14-84,186.63-111.92,211-281,529.75-122.65,619,131.53,74.06,226.66-47.69,303.1-145.53,43.21-55.29,80.52-103,116.65-107.54,40.3-5,103.32,21.89,176.33,53,128.78,54.93,289,123.28,427.48,67.79,44.33-17.77,72.79-43.19,84.6-75.55,22-60.34-16.6-132.68-42.15-180.54-11.9-22.33-20.51-38.45-19.48-46.66,1.55-12.43,21.16-45.6,50.86-95.81,100.17-169.36,308.6-521.77,190-730.8-31.9-56.2-67.53-87-109-94.05C1168.62-8.52,1085.42,63.84,1005,133.82c-64.1,55.75-124.65,108.41-177,112-14.37,1-51.4-5.27-102.63-14C633.1,216.28,495,192.89,372,192.89Z"/><path class="cls-2" d="M155.44,1368.52c-24.88,0-51-6.67-78.52-22.16-153.3-86.34,9-404.48,116.4-615,43.5-85.25,77.85-152.59,77.85-178.33,0-49.63-41.86-78.33-82.35-106.09-43.74-30-89-61-82.21-118.48,3.94-33.39,19.8-60.76,47.16-81.34C269,160.42,563.23,208.88,721.31,234.92c49,8.08,84.42,13.94,97.59,13C867,244.6,925.47,195.81,987.43,144.16,1069.16,76,1153.7,5.6,1231.94,19.81c40.79,7.41,75.34,37,105.61,90.3,113.65,200.26-85.38,551.41-181,720.16-26.36,46.49-45.4,80.08-46.77,91.1-.85,6.76,7.38,22.85,17.8,43.22,24.94,48.74,62.62,122.39,39.73,183.5-11.87,31.7-39.18,56.3-81.17,73.13-132.61,53.18-293.09-12.12-422-64.58-71.62-29.13-133.49-54.28-170.69-49.67-32.7,4.07-69.56,48.24-112.24,99.38C319.39,1280.34,245.79,1368.52,155.44,1368.52ZM108.16,328.64l1.56.18c-6.55,55.59,35.91,84.71,80.87,115.53,41.15,28.22,83.71,57.4,83.71,108.67,0,26.49-34.51,94.13-78.19,179.75-106.86,209.46-268.34,526-117.66,610.86,26.86,15.12,52.43,21.65,76.79,21.66,89.2,0,162.23-87.52,223.5-160.94,43.1-51.65,80.33-96.26,114.26-100.48,38-4.72,100.22,20.58,172.24,49.88,128.44,52.25,288.27,117.26,419.7,64.58,41.15-16.5,67.87-40.5,79.42-71.33,22.4-59.82-14.9-132.74-39.59-181-11.08-21.66-19.08-37.31-18.12-45,1.44-11.63,19.63-43.71,47.15-92.26,95.36-168.25,293.8-518.35,181-717.07-29.78-52.49-63.62-81.53-103.45-88.77-76.78-14-160.78,56-242,123.68-62.36,52-121.26,101.09-170.32,104.48-13.52.93-49.09-4.93-98.31-13-157.62-26-451-74.3-565.15,11.59-26.65,20.06-42.1,46.71-45.93,79.22Z"/><path class="cls-3" d="M163,1350.61c-24.13,0-49.21-6.33-75.28-21-145.52-81.94,9-397.89,111.31-607,40.28-82.34,72.1-147.38,72.1-171.4,0-46.78-39.44-76.23-77.59-104.72-41.41-30.92-84.23-62.9-77.82-117.27l1.55.18-1.55-.18c3.62-30.79,18.39-56.17,43.87-75.45C270.81,169.72,560.91,216.11,716.76,241c47,7.51,80.91,12.92,93.28,12.09,44.84-3.09,101.66-48.37,161.82-96.32C1050.54,94.08,1139.71,23,1217.4,38c39.12,7.56,71.82,35.35,100,85,107.76,189.91-81.21,538.82-172,706.5-24.28,44.84-41.83,77.23-43.11,87.49-.78,6.3,6.84,21.89,16.49,41.62,24,49.17,60.39,123.48,37.1,184-11.59,30.09-37.14,53.25-76,68.81-125.56,50.34-285.63-11.58-414.25-61.33C595,1122.77,534,1099.2,499,1103.53c-30.58,3.8-67.29,44.88-109.8,92.43C326.16,1266.51,251,1350.6,163,1350.61Zm214-1141.9c-88.31,0-168.36,11.91-215.53,47.58-24.78,18.74-39.14,43.41-42.66,73.33-6.19,52.58,34,82.6,76.59,114.4C234.21,473,274.3,502.89,274.3,551.24c0,24.74-32,90.07-72.42,172.77C100.12,932-53.65,1246.38,89.29,1326.88c118.87,67,218-43.92,297.6-133,42.93-48,80-89.5,111.74-93.45,35.77-4.44,97.1,19.28,168.12,46.75,128.11,49.55,287.55,111.2,412,61.35,38-15.23,63-37.78,74.21-67,22.8-59.26-13.18-132.83-37-181.52-10.26-21-17.68-36.16-16.78-43.38,1.35-10.84,18.1-41.77,43.46-88.59,90.55-167.18,279-515.06,172.06-703.46C1287,75.76,1255,48.46,1216.81,41.08,1140.54,26.37,1052,97,973.81,159.24c-60.55,48.25-117.74,93.83-163.56,97-12.63.89-46.78-4.58-94-12.12C627.45,229.91,494.89,208.71,377.05,208.71Z"/><path class="cls-4" d="M170.64,1332.69c-23.4,0-47.43-6-72-19.84-137.69-77.54,9.06-391.37,106.16-599,37.11-79.35,66.42-142,66.42-164.34,0-43.94-37-74.14-72.83-103.33-39.07-31.87-79.48-64.82-73.44-116.1,3.32-28.22,17-51.64,40.61-69.59,107.05-81.38,393.06-37.12,546.72-13.34,45,7,77.48,12,88.94,11.2,41.66-2.88,96.71-44.69,155-88.95,79.57-60.43,169.76-128.92,246.8-113.1,37.37,7.67,68.2,33.72,94.26,79.64,101.88,179.53-77,526.31-163,693-22.23,43.1-38.3,74.24-39.48,83.73-.73,5.84,6.29,20.93,15.19,40,21.73,46.65,58.11,124.71,34.42,184.6-11.25,28.45-35,50.12-70.73,64.43-118.5,47.49-278.2-11-406.53-58.08-69.59-25.51-129.67-47.53-162.46-43.47-28.45,3.54-64.94,41.53-107.19,85.51C333,1252.7,256.17,1332.69,170.64,1332.69ZM126.45,330.23l1.55.18c-5.84,49.57,33.89,82,72.32,113.3,36.37,29.66,74,60.33,74,105.76,0,23-29.44,86-66.71,165.66C111,921.76-35,1234,100.12,1310.13c24,13.51,47.5,19.35,70.38,19.35,84.43,0,160.72-79.42,224.71-146,42.66-44.42,79.5-82.78,109.05-86.45,33.51-4.17,94,18,163.92,43.64,127.82,46.85,286.9,105.16,404.29,58.11,34.86-14,58.07-35.07,69-62.68,23.19-58.64-12.83-135.94-34.35-182.13-9.47-20.31-16.31-35-15.47-41.72,1.26-10,16.6-39.77,39.81-84.78,85.72-166.16,264.09-511.93,163-690-25.59-45.09-55.74-70.64-92.17-78.12-75.62-15.52-165.23,52.5-244.29,112.53C899.39,216.4,844,258.48,801.38,261.42c-11.82.85-44.47-4.23-89.63-11.22-153.2-23.71-438.35-67.85-544.35,12.73-22.92,17.43-36.18,40.13-39.4,67.48Z"/><path class="cls-5" d="M178.24,1314.78c-22.66,0-45.64-5.63-68.81-18.68C52,1263.79,41.74,1182.43,77.92,1047.39c30.4-113.44,87-240.47,132.43-342.54,34-76.29,60.82-136.55,60.82-157.16,0-41.1-34.61-72-68.07-101.91C166.36,413,128.37,379,134,330.84l1.55.19-1.55-.19c3-25.71,15.6-47.17,37.36-63.81,102.82-78.59,384.8-36.47,536.29-13.84,42.94,6.41,74,11,84.62,10.31,38.5-2.66,91.7-41,148-81.65,80.59-58.12,171.94-124,248.32-107.32,35.53,7.75,64.45,32,88.4,74.26,96,169.13-72.79,513.89-153.9,679.57-20.21,41.29-34.81,71.12-35.9,79.86-.67,5.39,5.77,19.95,13.92,38.38,20.87,47.16,55.79,126.09,31.71,185.27-10.88,26.73-32.91,46.91-65.49,60C956,1236.53,796.6,1181.36,668.54,1137c-68.53-23.71-127.71-44.22-158.26-40.39-26.33,3.27-62.51,38.2-104.4,78.64C340,1238.92,261.38,1314.77,178.24,1314.78ZM382.06,224.54c-86.53,0-164.56,11.19-208.76,45-21.07,16.1-33.23,36.85-36.15,61.69-5.49,46.55,31.89,79.94,68,112.24,34,30.35,69.12,61.74,69.12,104.24,0,21.28-27,81.8-61.09,158.43C127.33,898.94-16.4,1221.65,111,1293.38c106.16,59.79,209.62-40.09,292.74-120.34,42.3-40.83,78.83-76.09,106.19-79.49,31.28-3.92,90.77,16.7,159.67,40.54,127.58,44.14,286.33,99.09,396.67,54.86,31.76-12.74,53.22-32.34,63.77-58.26,23.58-57.94-11-136.12-31.68-182.83-8.67-19.61-14.94-33.78-14.16-40,1.15-9.26,15.09-37.73,36.2-80.84,80.87-165.2,249.15-509,154-676.66-23.49-41.4-51.73-65.19-86.34-72.75-75-16.39-165.77,49.07-245.83,106.8-56.7,40.89-110.26,79.52-149.65,82.24-11,.76-42.16-3.89-85.29-10.34C621.8,243.52,494.73,224.54,382.06,224.54Z"/><path class="cls-6" d="M184.78,1296.44a129.31,129.31,0,0,1-64.52-17.09C66.39,1249,56.92,1169,91.31,1034.83c28.83-112.51,84.16-243.46,124.56-339.08,30.89-73.14,55.3-130.9,55.3-149.84,0-38.26-32.19-69.88-63.32-100.46-34.4-33.8-70-68.75-64.67-113.81,2.74-23.24,14.22-42.79,34.13-58.09,98.46-75.7,387.14-34.23,525.87-14.29,40.89,5.87,70.45,10.11,80.26,9.43,35.37-2.44,86.65-37.41,140.94-74.44,81.75-55.77,174.43-119,250.1-101.41,33.13,7.69,60.86,30.85,82.42,68.84,90.07,158.73-74.5,514.47-144.78,666.37-18.21,39.36-31.36,67.79-32.36,75.78-.62,4.95,5.25,19,12.68,36.72,20,47.75,53.41,127.67,29,186-10.46,25-30.73,43.63-60.24,55.46-104.33,41.83-270.17-12.12-391.27-51.5-67.41-21.93-125.66-40.83-154-37.34-24.22,3-60,34.9-101.42,71.82C350.2,1222.35,267.08,1296.44,184.78,1296.44Zm-40-964.62,1.55.18C141.16,375.55,176.18,410,210,443.22c31.59,31,64.26,63.12,64.26,102.69,0,19.57-23.31,74.72-55.55,151.05-81,191.63-216.47,512.36-96.95,579.67,99.77,56.19,205.59-38.14,290.62-113.93,41.81-37.27,77.91-69.46,103.11-72.59,29-3.6,84.77,14.51,155.33,37.47,120.64,39.23,285.86,93,389.14,51.57,28.7-11.51,48.4-29.6,58.52-53.76,23.94-57.17-9.18-136.33-29-183.63-8.19-19.6-13.61-32.54-12.89-38.32,1.06-8.47,13.62-35.61,32.62-76.7,70.08-151.47,234.18-506.19,144.9-663.51-21.41-37.73-47.71-59.76-80.41-67.35-74.31-17.24-166.41,45.55-247.64,101-57,38.89-106.26,72.48-142.48,75-10.15.68-39.84-3.56-80.91-9.46C564.43,242.48,276.64,201.13,179.22,276c-19.22,14.77-30.3,33.6-32.93,56Z"/><path class="cls-7" d="M192.44,1278.54a122.81,122.81,0,0,1-61.34-15.94c-114-64.21,13.81-384.65,90.18-576.12,27.87-69.87,49.89-125.07,49.89-142.34,0-35.43-29.77-67.73-58.57-99-32.06-34.79-65.21-70.77-60.27-112.73,2.45-20.82,12.85-38.47,30.92-52.44,93.95-72.68,378.62-33.51,515.42-14.68,38.83,5.34,66.88,9.2,75.9,8.58,32.27-2.23,79.26-32.4,133.66-67.34,83.1-53.35,177.28-113.84,252.21-95.36,31.12,7.68,56.79,29,76.29,63.39,84.15,148.27-69.83,502.19-135.59,653.33-16.24,37.32-28,64.29-28.88,71.53-.56,4.52,4.74,18,11.46,35,25,63.42,76.92,195.39-28.8,237.77-24.86,10-54.22,14.09-86.13,14.09-92.89,0-207.63-34.89-297.63-62.27-66.24-20.15-123.45-37.53-149.62-34.3-22.13,2.75-57.37,31.62-98.18,65C357.49,1208.78,272.33,1278.54,192.44,1278.54ZM388,240.83c-85.25,0-162.25,10.23-202.84,41.63-17.38,13.44-27.38,30.38-29.73,50.34h0c-4.77,40.53,27.89,76,59.47,110.25,29.2,31.68,59.4,64.44,59.4,101.09,0,17.87-21,70.57-50.12,143.5C148.19,878.15,21,1197,132.63,1259.87a119.77,119.77,0,0,0,59.79,15.52c78.84,0,163.5-69.36,229-123,41.18-33.73,76.75-62.87,99.78-65.73,26.82-3.35,81.58,13.32,150.91,34.41,120.49,36.65,285.5,86.84,381.69,48.28,102.84-41.24,51.65-171.25,27-233.73-7.41-18.83-12.31-31.27-11.65-36.57,1-7.69,12.16-33.43,29.12-72.4C1163.84,676,1317.39,323,1234,176.12c-19.34-34.08-43.65-54.32-74.33-61.89-73.61-18.18-167.2,41.94-249.77,95C855.15,244.35,807.86,274.72,774.78,277c-9.35.63-37.52-3.23-76.53-8.6C621.45,257.84,497.88,240.83,388,240.83Z"/><path class="cls-8" d="M200.11,1260.65c-20.24,0-39.8-4.45-58.18-14.8-106-59.71,13.33-378.4,84.65-568.81,24.92-66.51,44.59-119,44.59-134.68,0-32.59-26.14-64.09-53.82-97.43-29.72-35.81-60.46-72.85-55.88-111.7l1.55.18-1.55-.18c2.18-18.48,11.51-34.26,27.75-46.9,89.28-69.51,370-32.68,505-15,36.74,4.81,63.27,8.31,71.51,7.73,29.21-2,74.15-29,126.19-60.33,84.66-50.9,180.62-108.59,254.66-89.16,29,7.61,52.54,27.08,70,57.88,78.2,137.8-65.15,490.1-126.35,640.54-14.31,35.15-24.64,60.54-25.45,67-.51,4.08,4.25,17,10.27,33.33,23.28,63.21,71.74,194.75-26.35,234.07-90.08,36.12-255.54-10.68-376.34-44.84-65-18.39-121.19-34.26-145.17-31.29-20.06,2.49-54.63,28.38-94.67,58.35C365,1195.25,277.61,1260.64,200.11,1260.65ZM390.45,248.73c-84.43,0-160.44,9.81-199.31,40.07-15.55,12.11-24.49,27.18-26.57,44.79-4.42,37.53,25.89,74,55.19,109.34,26.81,32.31,54.54,65.71,54.54,99.43,0,16.2-18.79,66.36-44.79,135.77-71,189.48-189.75,506.6-86,565,86.94,49,202.67-37.67,287.17-100.94,42.05-31.49,75.27-56.36,96.15-59,24.61-3,78.36,12.14,146.41,31.38,120.37,34,285.22,80.66,374.32,45,95.27-38.19,47.53-167.8,24.59-230.09-6.65-18-11-30-10.44-34.8.86-6.91,10.72-31.15,25.65-67.84,61-150,204-501.34,126.53-637.82-17-30-39.95-49-68.09-56.39-72.8-19.11-172.3,40.73-252.26,88.81-52.38,31.5-97.63,58.7-127.58,60.77-8.54.58-35.22-2.92-72.13-7.75C618.52,264.57,497.71,248.73,390.45,248.73Z"/><path class="cls-9" d="M207.78,1242.76c-19.53,0-38.06-4.12-55-13.66-98-55.19,12.8-372.27,79-561.73,22-63,39.4-112.77,39.4-126.78,0-29.77-23.84-61.86-49.07-95.83-27.38-36.87-55.7-75-51.49-110.74h0c1.91-16.19,10.19-30.14,24.63-41.46,84.4-66.17,361.38-31.74,494.49-15.2,34.65,4.31,59.62,7.42,67.11,6.91,26.17-1.8,68.95-25.74,118.48-53.45,56.12-31.39,119.72-67,177.82-81,67.83-16.35,114.69.17,143.27,50.53,72.24,127.29-60.4,478.17-117,628-12.41,32.81-21.38,56.53-22.1,62.31-.45,3.65,3.77,16,9.11,31.59,21.59,63,66.49,194.15-23.93,230.4-82.91,33.26-248.28-9.94-369-41.47-66.37-17.34-118.81-31-140.61-28.31-18,2.23-51.73,25.17-90.8,51.73C372.65,1181.77,282.93,1242.76,207.78,1242.76ZM172.16,334.21l1.56.18c-4.07,34.51,23.87,72.13,50.89,108.5,25.55,34.41,49.69,66.9,49.69,97.7,0,14.55-16.61,62.06-39.58,127.81-65.88,188.53-176.14,504.07-80.41,558,80.48,45.34,199.24-35.39,285.94-94.34,41-27.89,73.43-49.92,92.17-52.24,22.39-2.81,75.09,11,141.79,28.39,120.32,31.42,285.11,74.43,367.07,41.59,87.67-35.15,43.42-164.38,22.15-226.48-5.9-17.24-9.8-28.63-9.26-33,.77-6.15,9.32-28.78,22.27-63,56.49-149.42,188.76-499.34,117.25-625.35C1131,91.38,990.07,170.21,876.85,233.55c-49.86,27.89-92.92,52-119.8,53.84-7.71.53-31.6-2.44-67.71-6.92C556.65,264,280.54,229.65,197.16,295c-13.75,10.79-21.64,24-23.44,39.37Z"/><path class="cls-10" d="M215.45,1224.86c-18.82,0-36.32-3.77-51.84-12.51-89.91-50.63,12.19-366.28,73.2-554.88,19.95-61.67,34.36-106.23,34.36-118.66,0-26.93-21.53-59.58-44.32-94.14-25-38-50.94-77.22-47.1-109.85,12.86-109.09,358.12-68.7,505.55-51.45,32.53,3.81,56,6.55,62.67,6.1,23.19-1.6,63.65-22.51,110.51-46.72,109.17-56.4,258.67-133.64,317.77-29.49,66.25,116.75-60.11,479.33-107.67,615.82-10.55,30.28-18.18,52.16-18.81,57.21-.4,3.24,3.31,15,8,29.82,19.85,62.84,61.15,193.61-21.56,226.76-75.74,30.38-241.1-9.19-361.85-38.06-65-15.54-116.26-27.82-135.92-25.37-15.94,2-47.08,21-86.5,45.2C380.59,1168.33,288.29,1224.86,215.45,1224.86ZM181.31,335l1.55.19c-3.71,31.49,21.86,70.27,46.59,107.76,23.06,35,44.85,68,44.85,95.86,0,12.92-14.48,57.68-34.52,119.62-56.73,175.38-162.32,501.82-74.64,551.2,15,8.46,32.06,12.12,50.38,12.13,71.86,0,163.77-56.3,234.79-99.79,39.74-24.34,71.13-43.56,87.74-45.63,20.24-2.5,71.77,9.82,137,25.43,120.34,28.78,285.15,68.2,360,38.2,80-32.08,39.3-161,19.74-222.92-5.18-16.4-8.61-27.23-8.12-31.14.67-5.39,7.95-26.26,19-57.86,47.44-136.13,173.45-497.73,107.9-613.25C1115.92,113.26,968,189.71,859.91,245.53c-47.16,24.37-87.89,45.41-111.73,47-6.91.49-29.33-2.14-63.24-6.11-146.51-17.14-489.59-57.27-502.08,48.72Z"/><path class="cls-11" d="M222.36,1206.68c-17.9,0-34.16-3.33-47.92-11.08-81.74-46,15.18-372.78,67.25-548.32,17.12-57.69,29.48-99.38,29.48-110.25,0-24.11-19.23-57.25-39.59-92.34-22.69-39.11-46.16-79.56-42.68-109.07,11.62-98.7,348.24-62,492-46.27,30.4,3.32,52.34,5.72,58.22,5.31,20.25-1.4,58.24-19.35,102.22-40.15,110.09-52,260.88-123.33,314.76-28.36,60.25,106.16-54.85,467.86-98.18,604-9.08,28.53-15.08,47.39-15.62,51.73-.36,2.83,2.85,13.94,6.91,28,18.09,62.68,55.73,193.11-19.22,223.16-68.51,27.48-234-8.42-354.8-34.62-63.47-13.76-113.62-24.64-131.1-22.46-13.91,1.73-43.82,18.08-81.68,38.77C392.59,1152.92,294.21,1206.68,222.36,1206.68ZM190.45,335.8,192,336c-3.35,28.48,19.85,68.47,42.29,107.15,20.57,35.46,40,69,40,93.9,0,11.33-12.42,53.2-29.61,111.14-51.82,174.71-148.28,499.9-68.71,544.7,67.46,38,198.32-33.52,284.91-80.84,38.15-20.85,68.29-37.32,82.8-39.13,18-2.26,68.39,8.68,132.14,22.51,120.43,26.12,285.35,61.88,353,34.77,72.32-29,33.82-162.42,17.38-219.39-5-17.43-7.43-25.95-7-29.27.57-4.63,6.28-22.57,15.74-52.29,43.22-135.81,158-496.57,98.45-601.54-52.45-92.44-201.73-21.88-310.72,29.65-44.26,20.93-82.49,39-103.34,40.44-6.09.43-27.06-1.86-58.77-5.32C537.72,276.87,203.26,240.36,192,336Z"/><path class="cls-12" d="M230.11,1188.81c-17.22,0-32.47-3-44.83-10-73.49-41.39,14.07-367.1,61.11-542.09,14.39-53.5,24.78-92.16,24.78-101.5,0-21.29-16.93-54.86-34.85-90.4C216,404.52,194.93,362.8,198,336.41c10.39-88.26,338.39-55.22,478.46-41.11,28.23,2.85,48.62,4.9,53.74,4.55,17.37-1.19,52.66-16.29,93.52-33.77,104.94-44.89,263.53-112.72,312.16-27,54.2,95.51-49.53,456.71-88.58,592.69-7.29,25.38-12.1,42.15-12.56,45.79-.3,2.44,2.43,12.91,5.88,26.17,15,57.66,50.19,192.69-16.92,219.59-61.28,24.56-227-7.62-347.94-31.12-61.86-12-110.72-21.54-126.1-19.6-11.91,1.48-40.28,15.16-76.2,32.47C401.38,1139.8,299.7,1188.81,230.11,1188.81ZM199.59,336.59l1.56.19c-3,25.46,17.82,66.75,38,106.68,18.09,35.88,35.19,69.77,35.19,91.8,0,9.76-10.44,48.58-24.89,102.31-46.82,174.17-134,498.36-62.6,538.55,11.93,6.72,26.71,9.62,43.43,9.62,68.62,0,170-48.88,241.9-83.52,36.18-17.44,64.75-31.22,77.18-32.76,15.88-2,64.95,7.56,127.07,19.63,120.6,23.43,285.77,55.51,346.18,31.29,64.57-25.88,29.88-159,15.06-215.9-4.27-16.42-6.31-24.44-6-27.35.48-3.88,5.07-19.84,12.66-46.27,39-135.63,142.41-495.91,88.86-590.27C1086,157.34,928.91,224.5,825,269c-42.82,18.31-76.64,32.78-94.54,34-5.38.38-24.82-1.59-54.26-4.55-127.18-12.82-465-46.85-475,38.36Z"/><path class="cls-13" d="M237.21,1170.71c-16.35,0-30.4-2.59-41.1-8.61C131,1125.41,209,800.43,250.89,625.84c11.77-49.06,20.28-84.5,20.28-92.36,0-18.47-14.63-52.36-30.12-88.24-18-41.67-36.61-84.77-33.87-108,9.16-77.76,328.57-48.48,465-36,26.06,2.39,44.86,4.11,49.23,3.82,14.56-1,45.36-12.75,84.34-27.63,106.22-40.52,266.75-101.77,310-25.48,48.12,84.8-47.45,459-78.85,582-5.58,21.82-9.25,36.24-9.62,39.19-.26,2.06,2,11.87,4.89,24.29,13.33,57.55,44.54,192.33-14.68,216.07-54,21.63-220-6.82-341.28-27.59-60.11-10.3-107.59-18.4-120.88-16.78-10,1.24-36.39,12.31-69.86,26.33C414.87,1125,305.83,1170.71,237.21,1170.71Zm166.1-882c-101.12,0-188.54,10.85-193,48.9C207.64,360,226.08,402.71,243.91,444c15.63,36.19,30.39,70.36,30.39,89.48,0,8.23-8.11,42-20.37,93.08C215.18,788,134.56,1123.84,197.65,1159.37c54.24,30.57,199.71-30.39,286.63-66.8,35-14.66,60.3-25.26,70.67-26.55,13.77-1.73,61.43,6.46,121.8,16.8,120.88,20.71,286.44,49.08,339.59,27.77,56.73-22.75,25.94-155.7,12.79-212.47-3.56-15.38-5.26-22.88-5-25.37.4-3.15,3.9-16.86,9.7-39.58,31.33-122.67,126.66-496,79.16-579.69-42-73.95-201-13.28-306.22,26.86-39.22,15-70.21,26.79-85.24,27.82-4.56.33-22.54-1.32-49.72-3.82C611.07,298.77,500.82,288.67,403.31,288.67Z"/><path class="cls-14" d="M245.08,1152.86c-15.72,0-28.81-2.26-38.13-7.51-56.69-31.93,14.14-368.95,48.19-530.92,9.3-44.29,16-76.3,16-82.73,0-15.66-12.34-49.72-25.41-85.78C230.12,402.77,214,358.14,216.33,338l1.55.19-1.55-.19c7.91-67.2,330.19-40.81,451.51-30.87,23.83,1.95,41.06,3.36,44.67,3.11,11.83-.81,39.5-10.06,74.54-21.75,101.23-33.81,270.68-90.38,308.54-23.66,27.89,49.13,4.68,241.65-69,572.21-4,17.72-6.56,29.43-6.84,31.71-.21,1.68,1.62,10.78,4,22.3,11.61,57.48,38.79,192.09-12.48,212.65-46.61,18.69-213.19-6-334.82-24-58.24-8.62-104.24-15.42-115.47-14-8,1-32,9.56-62.35,20.4C425.14,1112.32,311.6,1152.85,245.08,1152.86ZM404.91,296.52c-97.64,0-181.65,9.33-185.48,41.85-2.29,19.4,13.76,63.67,29.27,106.48,13.16,36.33,25.6,70.65,25.6,86.85,0,6.76-6.41,37.23-16.11,83.37-33.88,161.24-104.4,496.75-49.71,527.55,47.54,26.78,198.74-27.22,289.08-59.48,31.74-11.33,54.67-19.52,63-20.56,11.66-1.44,57.85,5.39,116.32,14,114.44,17,287.38,42.54,333.2,24.18,48.85-19.59,21.05-157.29,10.58-209.13-3-14.64-4.26-21.21-4-23.3.3-2.43,2.78-13.57,6.89-32,73.47-329.78,96.78-521.55,69.3-570C1056.29,201.89,888.37,258,788,291.45c-35.25,11.77-63.09,21.06-75.32,21.91-3.86.26-20.28-1.08-45.14-3.11C608.12,305.37,500,296.52,404.91,296.52Z"/><path class="cls-15" d="M252.44,1134.84c-14.93,0-26.9-1.88-34.65-6.24-48.1-27.09,12.28-364.18,41.3-526.18,7-39.15,12.08-67.44,12.08-72.49,0-12.86-10.06-46.88-20.71-82.89-13.27-44.86-27-91.24-25-108.24,6-50.7,252.89-39,438.09-25.81,21.57,1.53,37.12,2.64,40.08,2.44,9.2-.63,33.36-7.51,63.94-16.22,103-29.35,275.53-78.46,307.85-21.49,23.81,42,4,231.55-58.86,563.52-2.46,13-4.08,21.51-4.28,23.13-.17,1.32,1.34,10.11,3.08,20.29,9.84,57.43,32.88,191.92-10.35,209.24-39.18,15.72-213.41-6-328.69-20.3-56.18-7-100.57-12.52-109.73-11.36-6.12.76-25.87,6.61-53.21,14.72C441.13,1098.38,318.16,1134.84,252.44,1134.84ZM227,339l1.55.18c-1.92,16.36,12.32,64.51,24.88,107,10.72,36.24,20.85,70.47,20.85,83.78,0,5.32-4.83,32.26-12.14,73-26.63,148.7-89,496.91-42.84,522.9,40.74,22.94,205-25.75,293.18-51.9,27.48-8.15,47.34-14,53.71-14.83,9.59-1.2,51.91,4.07,110.5,11.36,115,14.3,288.72,35.9,327.15,20.5,40.88-16.38,17.31-154,8.43-205.81-2.3-13.47-3.32-19.5-3.1-21.21s1.75-9.85,4.3-23.32c78.14-412.56,75.33-533,59.22-561.39-31.12-54.85-208.81-4.24-304.27,22.94-32,9.11-55.06,15.68-64.59,16.34-3.1.22-17.2-.78-40.51-2.45-106-7.55-428.46-30.53-434.77,23.06Z"/><path class="cls-16" d="M260,1116.89c-14.22,0-25.14-1.52-31.4-5-39.33-22.16,12.11-372.57,34.07-522.2,4.92-33.53,8.48-57.75,8.48-61.5,0-10.07-7.8-43.69-16.05-79.29C244.23,402,233,353.43,234.61,339.6h0c4.84-41.09,244.74-31.55,424.77-20.8,20,1.19,33.1,2,35.39,1.83,6.7-.46,25.8-4.94,52.24-11.12,98.41-23,281.58-65.9,308.26-18.89,25.88,45.61-19.28,368.22-48.5,556.47-1.16,7.43-1.85,11.92-2,12.89s1,9,2.29,18.21c7.32,52.47,26.78,191.86-8.29,205.92-31.69,12.71-206.94-4.89-322.91-16.52-53.9-5.41-96.47-9.69-103.65-8.79-4.27.53-20,4.25-41.67,9.4C459.42,1085.06,325.16,1116.89,260,1116.89ZM237.71,340h0c-1.56,13.3,10.13,63.72,20.45,108.2,8.3,35.77,16.14,69.56,16.14,80,0,4-3.21,25.8-8.52,62-20,136.18-73.08,497.93-35.62,519,33.81,19.06,220.13-25.11,299.68-44,22.62-5.37,37.56-8.91,42-9.46,7.55-.93,48.16,3.14,104.35,8.78,115.67,11.6,290.46,29.14,321.43,16.73,32.81-13.15,12.9-155.73,6.36-202.58-1.75-12.55-2.45-17.69-2.29-19,.13-1,.83-5.49,2-13,50.35-324.35,67.71-521.26,48.87-554.45-25.52-45-214.17-.83-304.82,20.39-26.59,6.22-45.8,10.72-52.75,11.19-2.42.17-15-.58-35.79-1.82-103-6.15-416.42-24.86-421.48,18Z"/><path class="cls-17" d="M267.58,1098.94c-13.59,0-23.39-1.18-28.12-3.84-26.9-15.15,0-285.45,26.4-519.24,3.2-28.27,5.31-47,5.31-49.48,0-7.32-5.56-39.92-11.45-74.44-8.07-47.29-17.22-100.89-16-111.55,3.7-31.36,236.63-24.05,411.51-15.83,16.87.8,29,1.37,30.65,1.26,4.35-.3,18.86-2.93,38.94-6.57,93.94-17,289.41-52.47,310.25-15.74,24.81,43.71-37.17,547-37.81,552.09-.06.88.66,7.56,1.56,16,8.81,82.41,17.73,193.07-6.3,202.7s-200.72-3.75-317.61-12.63c-51.3-3.9-91.82-7-97.08-6.32-2.46.3-11.81,2-26,4.51C452.92,1077.57,325.61,1098.94,267.58,1098.94ZM245.31,340.57l1.55.19c-1.2,10.2,7.9,63.57,15.94,110.66,6.17,36.15,11.5,67.38,11.5,75,0,2.7-2,20.44-5.33,49.83-14,123.69-56.52,500.09-28,516.16,26.86,15.14,240.24-23,310.36-35.58,14.2-2.54,23.58-4.22,26.13-4.53,5.57-.7,44.2,2.24,97.7,6.3,109.51,8.32,292.81,22.23,316.21,12.85,16.33-6.54,17.79-73.65,4.35-199.46-1.24-11.67-1.67-15.76-1.55-16.74.63-5.06,62.11-508,38.19-550.16-19.74-34.8-221,1.69-307,17.27-20.94,3.8-34.77,6.31-39.29,6.62-1.77.11-12.15-.37-31-1.26-49.09-2.3-151.2-7.11-240.63-7.11h-.17c-143.64,0-166.57,12.65-167.46,20.19Z"/><path class="cls-18" d="M275.28,1080.93c-12.91,0-21.78-.78-25-2.58-14.38-8.1-8.6-172.6,18.19-517.7,1.62-20.84,2.69-34.61,2.69-36,0-4.61-3.23-33.55-7-67.07-5.7-51-12.17-108.92-11.29-116.34h0c1.93-16.38,128.5-19.85,398.35-10.93,14.39.48,24.77.82,25.79.75,2.21-.15,10.48-1.19,23-2.77C828.86,312,1001.68,293,1014.94,316.4c16.49,29.06-24.55,530.07-25.14,534.81,0,.65.39,6.43.92,13.75,9.55,131.12,8.14,194.53-4.41,199.56-16.33,6.56-194.75-2.57-312.82-8.6-48.39-2.47-86.62-4.41-90-4l-.46.06C539.11,1057.44,346.23,1080.93,275.28,1080.93ZM256,341.55c-.83,7.07,5.89,67.27,11.3,115.64,3.75,33.61,7,62.63,7,67.41,0,1.56-1,13.9-2.7,36.29-32.33,416.43-28.6,509.76-19.77,514.73,16.56,9.33,215.74-12.43,330.82-26.75l.46-.06c3.47-.43,33.44,1.07,90.54,4,110.64,5.66,295.81,15.11,311.5,8.82,7.42-3,13.88-39.47,2.46-196.43-.82-11.26-1-13.74-.91-14.37.59-4.73,41.23-505.19,25.52-532.88-9.13-16.08-114-11.58-311.8,13.4-12.57,1.59-20.86,2.63-23.17,2.79-1.1.08-8.81-.17-26.1-.74-46.85-1.55-144.33-4.78-231.71-4.83h-2.23c-144.09,0-160.75,9.07-161.21,13Z"/><path class="cls-19" d="M283.67,1063c-12.67,0-20.82-.42-22.54-1.38-2.81-1.59-11.37-6.41,9.24-518.36.48-12,.8-19.88.8-20.42,0-2-1.24-24.55-2.81-53.09-3.72-67.67-6.76-124-6.32-127.75h0c.49-4.16,1.53-12.81,385.26-6.1,12.18.21,20.22.34,20.89.33l.83-.06c74.39-5.19,317.72-21,325.76-6.85,8.54,15.05-11.92,513.1-12.48,517.53,0,.38.17,5,.41,11.4,6.35,170.68,1.93,194.67-2.64,196.5-7.78,3.11-156.77-.45-308.7-4.37-44.86-1.16-80.3-2-82.25-1.88C586.66,1048.78,357.79,1063,283.67,1063ZM265.12,342.61c-.28,6.11,3.71,78.66,6.36,127,1.57,28.59,2.82,51.17,2.82,53.26,0,.58-.25,6.72-.81,20.55C255.87,981,259.27,1054.31,262.86,1059c10.66,5.56,323-13.31,325.88-13.66,1.73-.22,28.08.46,82.71,1.86,104.7,2.71,299.6,7.73,307.46,4.6,2.79-2.4,6.73-30.8.68-193.49-.4-10.45-.43-11.57-.39-11.9.41-4.62,20.35-502.18,12.86-515.6-5.45-9.3-171.16-2.15-322.82,8.43l-.86.05c-.52.05-5.83-.05-21.14-.32C326.57,333.39,269.83,338.79,265.12,342.61Z"/><path class="cls-20" d="M974.82,1045.05H271.17V341.4H974.82Zm-700.52-3.13H971.69V344.52H274.3Z"/><rect class="cls-21" x="196.79" y="193.22" width="1000" height="1000" rx="120.29"/><path class="cls-22" d="M942.84,408.41A117.83,117.83,0,0,0,776.61,423L595.16,639.37l.07.06L466.63,792.78l54.86,46L604.3,740l58.81,49.32L580.3,888.1C534.66,942.52,453.16,949.68,398.74,904S337.16,776.9,382.8,722.48L511.62,568.87l-54.86-46L327.94,676.47c-71,84.71-59.91,211.39,24.79,282.43s211.4,59.91,282.43-24.79L764,780.5,650.24,685.12,831.47,469a47,47,0,0,1,73.45,58.61l-1.11,1.31L768,690.88l54.86,46L958.67,574.94l1.11-1.32c16.7-18.13,45-19.81,64.33-3.61a47.18,47.18,0,0,1,5.81,66.17L848.47,852.55l54.86,46,181.45-216.37a118.28,118.28,0,0,0-99.14-193.77A118,118,0,0,0,943.79,410Z"/><path class="cls-23" d="M1592.07,783q-50.49,0-88.23-23t-58.65-64q-20.91-41.05-20.91-95.63,0-55.08,21.68-97.15t61.71-65.79q40-23.72,95.11-23.72,62.73,0,104,30.09T1760.37,527h-72.93q-8.16-25-29.58-39t-55.08-14q-53.55,0-82.62,33.92t-29.07,93.07q0,59.17,28.82,91.55t78.28,32.38q48.45,0,73.19-26.26t29.83-69.11h-90.27v-49H1767V776.89h-60.18l-5.1-46.92a119.57,119.57,0,0,1-43.35,39.27Q1632.36,783,1592.07,783Z"/><path class="cls-23" d="M1853.19,776.89v-357h65.28v306h158.1v51Z"/><path class="cls-23" d="M2292.3,783q-53.55,0-93.58-23.46t-62.73-65q-22.69-41.56-22.7-96.14t22.7-96.13q22.68-41.56,62.73-65t93.58-23.46q53,0,93.33,23.46a163.84,163.84,0,0,1,62.73,65q22.44,41.57,22.44,96.13t-22.44,96.14a163.69,163.69,0,0,1-62.73,65Q2345.34,783,2292.3,783Zm0-58.65q51,0,81.35-33.66T2404,598.39q0-58.64-30.35-92.31t-81.35-33.66q-51,0-81.59,33.66t-30.61,92.31q0,58.67,30.61,92.31T2292.3,724.36Z"/><path class="cls-23" d="M2551.38,776.89v-357h143.31q55.57,0,84.91,25.76t29.33,66q0,33.66-18.11,53.81a90.2,90.2,0,0,1-44.11,27.28,85.12,85.12,0,0,1,50.49,30.35q19.89,24.23,19.89,56.35,0,42.35-30.6,69.87t-86.7,27.54Zm65.28-207.06H2685q27.54,0,42.33-12.75t14.79-36.21q0-22.42-14.54-35.44t-43.6-13h-67.32Zm0,154h72.93q29.07,0,45.13-13.51t16.07-38q0-25-16.83-39.27t-45.39-14.28h-71.91Z"/><path class="cls-23" d="M2870.13,776.89l130.56-357h73.44l130.56,357h-69.36l-28.56-82.62H2967.54l-29.07,82.62Zm115.26-133.62h103.53l-52-148.41Z"/><path class="cls-23" d="M3273.53,776.89v-357h65.28v306h158.1v51Z"/><path class="cls-23" d="M3694.28,783q-35.19,0-63.75-12.49a104.27,104.27,0,0,1-45.9-38.51q-17.34-26-18.36-65.28h64.26q.49,26,17.08,43.61t46.67,17.59q28.56,0,43.86-15.81t15.3-39.78q0-28-20.15-42.58t-51.76-14.54H3655V561.67h27q26,0,43.35-12.24t17.34-36.21q0-19.89-13-31.87t-35.95-12q-25,0-39,14.79t-15.55,36.21h-63.75q2-49.46,34.42-78t83.9-28.56q36.72,0,62,13T3794,461.2a89.63,89.63,0,0,1,13,47.43q0,30.11-16.57,50.75t-41.06,27.79q30.09,6.12,49,29.33t18.87,58.39A105.41,105.41,0,0,1,3802.91,729q-14.28,24.48-41.57,39.27T3694.28,783Z"/><path class="cls-23" d="M1408.29,1003.31V994.9h14.5V910.22h-14.5v-8.41h38.57q19.88,0,31,10.08t11.09,31.39V962q0,21.32-11.09,31.32t-31,10Zm23.78-8.41h14.79q16,0,24.36-7.69t8.41-24.79V942.84q0-17.25-8.41-24.86t-24.36-7.62h-14.79Z"/><path class="cls-23" d="M1521.68,920.66a7.64,7.64,0,0,1-5.36-13,7.64,7.64,0,0,1,10.8,10.8A7.22,7.22,0,0,1,1521.68,920.66Zm-4.35,82.65V932.84h8.7v70.47Z"/><path class="cls-23" d="M1586.79,1005.34q-12.76,0-21.83-6.09t-11.09-20.16l8.56-1.59q1.15,7.68,4.71,12.11a19.62,19.62,0,0,0,8.7,6.3,31.5,31.5,0,0,0,11,1.89q8.7,0,14-3.55a11.17,11.17,0,0,0,5.29-9.79q0-6.37-5-8.85a50.5,50.5,0,0,0-13.27-3.91l-6.67-1.16a50.77,50.77,0,0,1-12-3.55,21.48,21.48,0,0,1-8.49-6.46,16.15,16.15,0,0,1-3.11-10.15,16.78,16.78,0,0,1,7.17-14.35q7.18-5.22,19.07-5.22t19.36,5.44q7.32,5.43,9.21,15.73l-8.12,1.74q-1.45-8.41-6.89-11.89t-13.56-3.48q-8,0-12.76,3a10,10,0,0,0-4.78,9q0,5.8,4.35,8.49a33.78,33.78,0,0,0,11.89,4l6.67,1.16a64.63,64.63,0,0,1,13.05,3.41,22.19,22.19,0,0,1,9.2,6.31q3.41,4.07,3.41,10.73,0,10-7.54,15.44T1586.79,1005.34Z"/><path class="cls-23" d="M1675.09,1005.34a37.62,37.62,0,0,1-18.92-4.57,31.93,31.93,0,0,1-12.54-12.83,39.09,39.09,0,0,1-4.5-19V967.2a38.94,38.94,0,0,1,4.5-19.06A32.37,32.37,0,0,1,1656,935.38a35.39,35.39,0,0,1,18.06-4.57,36.11,36.11,0,0,1,17.47,4.13,29.88,29.88,0,0,1,12,11.89q4.35,7.75,4.35,18.49V970h-60q.43,13.2,8.05,20.37t19.21,7.18q9.86,0,15.3-4.5a29.87,29.87,0,0,0,8.34-11l7.83,3.48a41,41,0,0,1-6,9.36,29.88,29.88,0,0,1-9.93,7.54Q1684.52,1005.34,1675.09,1005.34ZM1648,962.42h51q-.58-11.46-7.4-17.62t-17.54-6.16q-10.59,0-17.55,6.16T1648,962.42Z"/><path class="cls-23" d="M1736.57,1003.31V932.84H1745v13h1.74a26.56,26.56,0,0,1,8.55-10.08q6-4.42,17.26-4.42a30.94,30.94,0,0,1,14.06,3.19,24.56,24.56,0,0,1,10.23,9.64q3.84,6.45,3.84,16.17v42.92H1792V961q0-11.6-5.8-16.68t-15.52-5.07a24.69,24.69,0,0,0-18.12,7.18q-7.26,7.17-7.25,21.67v35.24ZM1752.81,924l-6.09-3.33,4.35-8.12a12.89,12.89,0,0,1,3.77-4.28,9.18,9.18,0,0,1,5.51-1.67,10.86,10.86,0,0,1,5.29,1.24,17.71,17.71,0,0,1,4.86,4.42c1.35,1.55,2.49,2.8,3.41,3.77a3.92,3.92,0,0,0,2.82,1.45,3.47,3.47,0,0,0,2.32-.73,7,7,0,0,0,1.6-2l4.06-7.39,6.09,3.33-4.35,8.12a13.27,13.27,0,0,1-3.7,4.28,9.12,9.12,0,0,1-5.58,1.67,10.83,10.83,0,0,1-5.29-1.23,17.77,17.77,0,0,1-4.86-4.43q-1.89-2.31-3.26-3.77a4.1,4.1,0,0,0-3-1.45,3.54,3.54,0,0,0-2.32.73,7,7,0,0,0-1.59,2Z"/><path class="cls-23" d="M1864.75,1005.34a37.35,37.35,0,0,1-18.78-4.57A31.71,31.71,0,0,1,1833.5,988a39.52,39.52,0,0,1-4.42-19.07V967.2a39.48,39.48,0,0,1,4.42-19.06A31.71,31.71,0,0,1,1846,935.38a40.87,40.87,0,0,1,37.56,0A31.71,31.71,0,0,1,1896,948.14a39.48,39.48,0,0,1,4.42,19.06v1.74A39.52,39.52,0,0,1,1896,988a31.71,31.71,0,0,1-12.47,12.76A37.37,37.37,0,0,1,1864.75,1005.34Zm0-7.83q12.46,0,19.72-7.9t7.25-21v-1.16q0-13.05-7.25-21t-19.72-7.9q-12.33,0-19.65,7.9t-7.32,21v1.16q0,13.05,7.32,21T1864.75,997.51Z"/><path class="cls-23" d="M1983.21,1032.31v-7.83h41.18q4.35,0,4.35-4.35v-29H2027a25.68,25.68,0,0,1-4.85,6.6,23.27,23.27,0,0,1-8.12,5.07,34.62,34.62,0,0,1-12.55,2,31.23,31.23,0,0,1-14-3.19A24.56,24.56,0,0,1,1977.2,992q-3.85-6.37-3.85-16.1V932.84h8.7v42.48q0,11.46,5.8,16.53t15.52,5.08a24.83,24.83,0,0,0,18.12-7.11q7.26-7.1,7.25-21.6V932.84h8.7v88.45c0,3.48-.94,6.18-2.82,8.12s-4.72,2.9-8.49,2.9Z"/><path class="cls-23" d="M2140.39,1003.31q-5.66,0-8.48-2.9t-2.83-8.12V940.67h-22.62v-7.83h22.62V906.45h8.7v26.39h24.65v7.83h-24.65v50.46q0,4.35,4.35,4.35h16.53v7.83Z"/><path class="cls-23" d="M2219,1005.34a37.62,37.62,0,0,1-18.92-4.57,31.93,31.93,0,0,1-12.54-12.83,39.09,39.09,0,0,1-4.5-19V967.2a38.94,38.94,0,0,1,4.5-19.06,32.32,32.32,0,0,1,12.4-12.76,35.33,35.33,0,0,1,18-4.57,36.11,36.11,0,0,1,17.47,4.13,29.88,29.88,0,0,1,12,11.89q4.35,7.75,4.35,18.49V970h-60q.44,13.2,8.05,20.37t19.21,7.18q9.86,0,15.3-4.5a29.87,29.87,0,0,0,8.34-11l7.83,3.48a41,41,0,0,1-6,9.36,29.88,29.88,0,0,1-9.93,7.54Q2228.41,1005.34,2219,1005.34Zm-27.11-42.92h51q-.59-11.46-7.4-17.62T2218,938.64q-10.59,0-17.55,6.16T2191.87,962.42Z"/><path class="cls-23" d="M2312.65,1005.34a37.53,37.53,0,0,1-18.34-4.42,32,32,0,0,1-12.69-12.69A39.09,39.09,0,0,1,2277,968.8v-1.45q0-11.31,4.64-19.5a32.15,32.15,0,0,1,12.69-12.62,37.42,37.42,0,0,1,18.34-4.42q10.16,0,17.18,3.84a29.86,29.86,0,0,1,11,10,32.56,32.56,0,0,1,5,13l-8.56,1.74a25.62,25.62,0,0,0-3.63-10.36,21,21,0,0,0-8.11-7.54,29.6,29.6,0,0,0-26.69.72,25.73,25.73,0,0,0-9.64,10,31.21,31.21,0,0,0-3.55,15.29v1.16a31.22,31.22,0,0,0,3.55,15.3,25.73,25.73,0,0,0,9.64,10,26.86,26.86,0,0,0,13.78,3.55q11.59,0,17.69-6a26.23,26.23,0,0,0,7.54-14.72l8.56,1.74a35,35,0,0,1-5.44,13,31.15,31.15,0,0,1-11.17,10Q2322.8,1005.34,2312.65,1005.34Z"/><path class="cls-23" d="M2375.14,1003.31V932.84h8.41v13h1.74a26.59,26.59,0,0,1,8.56-10.08q5.94-4.42,17.25-4.42a31,31,0,0,1,14.07,3.19,24.54,24.54,0,0,1,10.22,9.64q3.84,6.45,3.84,16.17v42.92h-8.69V961q0-11.6-5.81-16.68t-15.51-5.07a24.73,24.73,0,0,0-18.13,7.18q-7.24,7.17-7.25,21.67v35.24Z"/><path class="cls-23" d="M2503.33,1005.34a37.32,37.32,0,0,1-18.78-4.57A31.65,31.65,0,0,1,2472.08,988a39.52,39.52,0,0,1-4.42-19.07V967.2a39.48,39.48,0,0,1,4.42-19.06,31.65,31.65,0,0,1,12.47-12.76,40.85,40.85,0,0,1,37.55,0,31.65,31.65,0,0,1,12.47,12.76A39.48,39.48,0,0,1,2539,967.2v1.74a39.52,39.52,0,0,1-4.43,19.07,31.65,31.65,0,0,1-12.47,12.76A37.31,37.31,0,0,1,2503.33,1005.34Zm0-7.83q12.47,0,19.71-7.9t7.25-21v-1.16q0-13.05-7.25-21t-19.71-7.9q-12.33,0-19.65,7.9t-7.32,21v1.16q0,13.05,7.32,21T2503.33,997.51Z"/><path class="cls-23" d="M2568.28,1003.31V901.81h8.7v101.5Z"/><path class="cls-23" d="M2641.94,1005.34a37.31,37.31,0,0,1-18.77-4.57A31.58,31.58,0,0,1,2610.7,988a39.52,39.52,0,0,1-4.43-19.07V967.2a39.48,39.48,0,0,1,4.43-19.06,31.58,31.58,0,0,1,12.47-12.76,40.85,40.85,0,0,1,37.55,0,31.65,31.65,0,0,1,12.47,12.76,39.48,39.48,0,0,1,4.42,19.06v1.74a39.52,39.52,0,0,1-4.42,19.07,31.65,31.65,0,0,1-12.47,12.76A37.32,37.32,0,0,1,2641.94,1005.34Zm0-7.83q12.48,0,19.72-7.9t7.25-21v-1.16q0-13.05-7.25-21t-19.72-7.9q-12.32,0-19.64,7.9t-7.33,21v1.16q0,13.05,7.33,21T2641.94,997.51Z"/><path class="cls-23" d="M2703.42,968.36v-1.74q0-11.16,4.57-19.14a32.36,32.36,0,0,1,12.25-12.32,34.15,34.15,0,0,1,17.11-4.35q11.59,0,18.06,4.57a29.88,29.88,0,0,1,9.49,10.36h1.74v-12.9h8.12v88.45c0,3.48-.92,6.18-2.75,8.12s-4.64,2.9-8.41,2.9h-48.14v-7.83h46.4q4.48,0,4.49-4.35V989.82h-1.74a28.73,28.73,0,0,1-5.29,6.82,25.89,25.89,0,0,1-8.77,5.44,36.39,36.39,0,0,1-13.2,2.1,34.52,34.52,0,0,1-17.18-4.35,31.43,31.43,0,0,1-12.25-12.4Q2703.42,979.39,2703.42,968.36Zm36,28q12,0,19.5-7.54t7.47-20.74v-1.16q0-13.33-7.47-20.8t-19.5-7.47q-11.88,0-19.43,7.47t-7.54,20.8v1.16q0,13.2,7.54,20.74T2739.38,996.35Z"/><path class="cls-23" d="M2811.88,920.66a7.64,7.64,0,0,1-5.36-13,7.64,7.64,0,0,1,10.8,10.8A7.22,7.22,0,0,1,2811.88,920.66Zm-4.35,82.65V932.84h8.7v70.47Z"/><path class="cls-23" d="M2870.61,1005.34a34.26,34.26,0,0,1-13.42-2.54,21.54,21.54,0,0,1-9.49-7.47,20.07,20.07,0,0,1-3.48-11.89,19,19,0,0,1,3.48-11.74,21.06,21.06,0,0,1,9.42-7,35.94,35.94,0,0,1,13.2-2.32h25.81v-5.66q0-8.55-4.93-13.34t-14.36-4.78q-9.28,0-14.72,4.57a22.51,22.51,0,0,0-7.32,12.25l-8.41-2.47a33.45,33.45,0,0,1,5.51-11.23,26.49,26.49,0,0,1,10-8,34.42,34.42,0,0,1,14.93-3q13.34,0,20.66,7t7.33,19.43v34.22q0,4.35,4.06,4.35h6.81v7.54h-9.28a9.43,9.43,0,0,1-7.1-2.68,10.06,10.06,0,0,1-2.61-7.33v-1h-1.45a33.15,33.15,0,0,1-4.86,6.23,21.75,21.75,0,0,1-7.76,4.93A33,33,0,0,1,2870.61,1005.34Zm.58-7.83q11.16,0,18-6.74t6.89-19.07V970h-25.67q-7.55,0-12.54,3.26t-5,10.08a12.16,12.16,0,0,0,5.14,10.51Q2863.21,997.52,2871.19,997.51Z"/></g></g></svg>