<svg width="259" height="259" viewBox="0 0 259 259" fill="none" xmlns="http://www.w3.org/2000/svg">
<path d="M220.533 37.6681C196.816 13.2536 164.031 0 130.548 0C59.3973 0 2.19756 57.8973 2.89512 128.351C2.89512 150.672 9.17313 172.297 19.6365 191.828L1.5 258.096L69.1631 240.657C87.9972 251.121 108.924 256.004 129.851 256.004C200.304 256.004 257.504 198.106 257.504 127.653C257.504 93.4727 244.25 61.3851 220.533 37.6681ZM130.548 234.379C111.714 234.379 92.8801 229.497 76.8362 219.731L72.6509 217.638L32.1925 228.101L42.6559 188.341L39.8657 184.155C9.17313 134.629 23.8218 69.0582 74.046 38.3657C124.27 7.67313 189.143 22.3218 219.836 72.546C250.528 122.77 235.879 187.643 185.655 218.336C169.611 228.799 150.08 234.379 130.548 234.379ZM191.933 156.951L184.26 153.463C184.26 153.463 173.099 148.58 166.124 145.092C165.426 145.092 164.729 144.394 164.031 144.394C161.938 144.394 160.543 145.092 159.148 145.79C159.148 145.79 158.451 146.487 148.685 157.648C147.987 159.043 146.592 159.741 145.197 159.741H144.499C143.802 159.741 142.407 159.043 141.709 158.346L138.221 156.951C130.548 153.463 123.573 149.277 117.992 143.697C116.597 142.302 114.504 140.907 113.109 139.512C108.226 134.629 103.343 129.048 99.8556 122.77L99.1581 121.375C98.4605 120.677 98.4605 119.98 97.763 118.585C97.763 117.19 97.763 115.795 98.4605 115.097C98.4605 115.097 101.251 111.609 103.343 109.517C104.739 108.121 105.436 106.029 106.831 104.634C108.226 102.541 108.924 99.7508 108.226 97.6581C107.529 94.1703 99.1581 75.3362 97.0654 71.1509C95.6703 69.0582 94.2752 68.3607 92.1825 67.6631H90.0898C88.6947 67.6631 86.602 67.6631 84.5094 67.6631C83.1143 67.6631 81.7191 68.3607 80.324 68.3607L79.6265 69.0582C78.2314 69.7558 76.8362 71.1509 75.4411 71.8484C74.046 73.2436 73.3485 74.6387 71.9533 76.0338C67.0704 82.3118 64.2802 89.985 64.2802 97.6581C64.2802 103.239 65.6753 108.819 67.768 113.702L68.4655 115.795C74.7436 129.048 83.1143 140.907 94.2752 151.37L97.0654 154.16C99.1581 156.253 101.251 157.648 102.646 159.741C117.295 172.297 134.036 181.365 152.87 186.248C154.963 186.945 157.753 186.945 159.846 187.643C161.938 187.643 164.729 187.643 166.821 187.643C170.309 187.643 174.494 186.248 177.285 184.853C179.377 183.458 180.772 183.458 182.167 182.063L183.563 180.667C184.958 179.272 186.353 178.575 187.748 177.18C189.143 175.785 190.538 174.389 191.236 172.994C192.631 170.204 193.328 166.716 194.026 163.229C194.026 161.833 194.026 159.741 194.026 158.346C194.026 158.346 193.328 157.648 191.933 156.951Z" fill="url(#paint0_linear_43_6)"/>
<defs>
<linearGradient id="paint0_linear_43_6" x1="61.5" y1="14.5" x2="216.5" y2="229" gradientUnits="userSpaceOnUse">
<stop stop-color="#FF7F00"/>
<stop offset="1" stop-color="#FF6100"/>
</linearGradient>
</defs>
</svg>
