<?xml version="1.0" encoding="utf-8"?>
<!-- Generator: Adobe Illustrator 26.1.0, SVG Export Plug-In . SVG Version: 6.00 Build 0)  -->
<svg version="1.1" id="Capa_1" xmlns="http://www.w3.org/2000/svg" xmlns:xlink="http://www.w3.org/1999/xlink" x="0px" y="0px"
	 viewBox="0 0 111.2 111.1" style="enable-background:new 0 0 111.2 111.1;" xml:space="preserve">
<style type="text/css">
	.st0{fill:#FFFFFF;}
</style>
<g id="Capa_2_00000137826343365324634380000005473992101788582841_">
	<g id="Objects">
		<path class="st0" d="M63.7,14.8c1.9,2.7,3.4,5.6,4.5,8.7c1.3,0.2,2.7,0.4,4,0.7l0.7,0.2H73l0.8,0.2l0,0c0.3,0.1,0.5,0.1,0.8,0.2
			s0.5,0.1,0.7,0.2s0.5,0.1,0.7,0.2l0.7,0.2l0.6,0.2c1.3,0.5,2.5,1,3.7,1.7c0.3,0.1,0.6,0.3,0.9,0.5c0.5,0.3,1,0.5,1.4,0.8l0.6,0.4
			l0.3,0.2l0.6,0.4c0.2,0.1,0.4,0.3,0.6,0.4c2.3,1.6,4.4,3.4,6.3,5.4c0.2,0.2,0.4,0.5,0.7,0.7s0.3,0.4,0.5,0.6s0.6,0.7,0.8,1
			s0.3,0.4,0.5,0.6l0.6,0.8c0.2,0.3,0.4,0.5,0.6,0.8s0.4,0.5,0.6,0.8c0.3,0.5,0.7,1.1,1,1.6c0.2,0.3,0.3,0.5,0.5,0.8
			s0.3,0.6,0.5,0.8c0.3,0.6,0.7,1.2,0.9,1.8c0.1,0.2,0.2,0.5,0.3,0.7s0.2,0.5,0.3,0.8s0.2,0.4,0.3,0.7s0.2,0.4,0.2,0.6
			c0.2,0.5,0.4,1,0.6,1.6c0.1,0.3,0.2,0.6,0.3,0.9l0,0c0.1,0.3,0.2,0.6,0.3,0.9c0.2,0.9,0.5,1.7,0.7,2.6c0.1,0.2,0.1,0.5,0.1,0.7
			s0.1,0.2,0.1,0.4s0.1,0.3,0.1,0.5l0.1,0.7c0,0.2,0.1,0.5,0.1,0.7s0,0.2,0,0.3l0.1,0.5c0,0.2,0,0.4,0,0.5s0.1,0.5,0.1,0.8l0.1,1
			c0,0.3,0,0.7,0,1s0,0.7,0,1c0,21.9-17.7,39.8-39.6,39.9h-1h-1l-1-0.1l0,0l-0.9-0.1l-0.8-0.1l-0.5-0.1l-0.7-0.1H57l-0.7-0.1
			l-0.6-0.1c-0.3,0-0.6-0.1-0.9-0.2c-1.5-0.3-3.1-0.7-4.6-1.2l-0.9-0.3l-0.9-0.4l-1.1-0.5c-0.2-0.1-0.5-0.2-0.7-0.3l-0.8-0.3l-1-0.5
			L44.1,98c-0.3-0.2-0.6-0.3-0.9-0.5s-0.6-0.3-0.8-0.5l0,0c-0.5-0.3-1-0.6-1.5-0.9l-0.1,0c-0.3-0.2-0.5-0.3-0.8-0.5l-0.8-0.6
			l-0.8-0.6l-0.6-0.5l-1-0.8c-0.2-0.2-0.4-0.4-0.6-0.6l0,0c-0.2-0.2-0.5-0.4-0.7-0.7l-0.7-0.7c-0.4-0.4-0.9-0.9-1.3-1.3L32.9,89
			c-0.4-0.5-0.8-1-1.2-1.5c-0.2-0.3-0.5-0.6-0.7-0.9s-0.3-0.4-0.4-0.6l-0.1-0.2c-0.2-0.2-0.3-0.5-0.5-0.7c-0.2-0.2-0.3-0.4-0.5-0.7
			s-0.4-0.7-0.6-1c-0.3-0.5-0.6-1.1-0.9-1.6c-0.6-1.1-1.1-2.2-1.6-3.3c-0.1-0.2-0.2-0.5-0.3-0.8l0,0c-0.1-0.2-0.2-0.4-0.2-0.6
			s-0.1-0.3-0.2-0.5l-0.2-0.6c-0.1-0.3-0.2-0.5-0.3-0.8s-0.2-0.6-0.3-0.8c0,0,0-0.1,0-0.1l-0.2-0.8c-0.1-0.3-0.2-0.6-0.2-0.9
			c-0.2-0.9-0.4-1.8-0.6-2.7l-0.1-0.9c0-0.3-0.1-0.6-0.1-0.9c-3.1-1.1-6-2.6-8.7-4.5c0.5,26.6,22.4,47.8,49,47.3s47.8-22.4,47.3-49
			C110.8,36.2,89.8,15.2,63.7,14.8L63.7,14.8z M23.4,59.2l0.1-0.9l0.1-0.9c0-0.3,0.1-0.6,0.1-0.9s0.1-0.6,0.1-0.9
			c0.2-1.2,0.5-2.3,0.8-3.4l0.2-0.8l0,0l0.2-0.7c0-0.1,0-0.2,0.1-0.3l0.2-0.7c0.1-0.2,0.1-0.4,0.2-0.6l0.1-0.4
			c0.2-0.5,0.4-0.9,0.6-1.4s0.5-1.1,0.7-1.6l0.4-0.7c0.1-0.2,0.2-0.3,0.2-0.5s0.2-0.4,0.3-0.5l0.1-0.2c0.1-0.2,0.3-0.5,0.4-0.7
			l0.4-0.7c0.1-0.2,0.2-0.4,0.4-0.6l0.3-0.5c0.5-0.7,0.9-1.4,1.5-2.1c0.2-0.2,0.3-0.5,0.5-0.7l0.4-0.5c0.4-0.5,0.8-1,1.2-1.5
			c0.2-0.2,0.3-0.4,0.5-0.6c0.4-0.4,0.8-0.8,1.2-1.2l0.5-0.5c0.2-0.2,0.5-0.5,0.8-0.7l0.6-0.5c0.3-0.3,0.7-0.6,1.1-0.9l0.5-0.5
			c0.8-0.6,1.6-1.2,2.5-1.8c0.2-0.2,0.5-0.3,0.7-0.5l0.6-0.4l0.5-0.3c0.2-0.1,0.4-0.3,0.7-0.4s0.6-0.3,0.8-0.5l0.8-0.5l0.9-0.4l0,0
			c0.5-0.2,1-0.5,1.6-0.7s0.8-0.3,1.2-0.5s0.5-0.2,0.8-0.3l0.7-0.2l0.4-0.1l0.8-0.2l0.9-0.3l1-0.3l0.8-0.2l0.6-0.1l0.3-0.1l0.5-0.1
			l0.8-0.1l0.6-0.1l0.6-0.1c0.6-0.1,1.1-0.1,1.7-0.2c-1.4-2.8-3.3-5.4-5.6-7.6c-19.1,3.9-33.9,18.8-37.7,37.9
			C18,55.9,20.5,57.8,23.4,59.2z"/>
		<path class="st0" d="M69.6,28.6C67.4,28.2,65.2,28,63,28c-0.7,0-1.4,0-2.1,0.1c3.9,14.3-4.5,29-18.8,32.9c-2.3,0.6-4.7,0.9-7,0.9
			c-2.3,0-4.7-0.3-7-0.9l0,0c0,0.7-0.1,1.3-0.1,2c0,2.2,0.2,4.5,0.6,6.7c2.1,0.4,4.2,0.6,6.4,0.6c19.4,0,35.1-15.7,35.1-35.1
			C70.2,33,70,30.8,69.6,28.6z M35.1,0C15.7,0,0,15.7,0,35.1c0,9.2,3.6,18,10,24.6c0.2-3.8,0.9-7.5,1.9-11.2
			c-7.4-12.8-3-29.2,9.8-36.6c8.3-4.8,18.4-4.8,26.7,0c3.7-1,7.4-1.7,11.2-1.9C53.1,3.6,44.3,0,35.1,0z"/>
	</g>
</g>
</svg>
