<svg xmlns="http://www.w3.org/2000/svg" xmlns:xlink="http://www.w3.org/1999/xlink" viewBox="0 0 90.53 90.24"><defs><style>.cls-1{fill:url(#linear-gradient);}.cls-2{fill:url(#linear-gradient-2);}.cls-3{fill:url(#linear-gradient-3);}</style><linearGradient id="linear-gradient" y1="45.45" x2="90.53" y2="45.45" gradientUnits="userSpaceOnUse"><stop offset="0"/><stop offset="0.33"/><stop offset="0.52"/><stop offset="0.73"/><stop offset="1"/></linearGradient><linearGradient id="linear-gradient-2" x1="0.01" y1="23.52" x2="31.09" y2="23.52" xlink:href="#linear-gradient"/><linearGradient id="linear-gradient-3" x1="59.46" y1="65.34" x2="89.84" y2="65.34" xlink:href="#linear-gradient"/></defs><g id="Capa_2" data-name="Capa 2"><g id="Objects"><path class="cls-1" d="M40.7,78.78v2.06h-.1v.07h-31l.51-2.46c.09-.45.18-.88.28-1.28s.2-.8.31-1.19l.06-.22.06-.21c.09-.31.18-.6.27-.9h0v0c.07-.24.15-.49.24-.73s.19-.54.29-.81.26-.69.4-1,.25-.58.39-.89a3,3,0,0,1,.16-.37c.13-.29.25-.55.38-.8l.15-.32c.13-.27.27-.54.41-.79,0-.1.11-.22.19-.35v0l0,0,0,0c.18-.34.35-.64.52-.92s.33-.56.52-.85l.06-.11a2.13,2.13,0,0,0,.16-.25l.08-.11c.18-.29.38-.6.59-.89s.47-.68.74-1,.37-.5.62-.82l0,0,0,0,.05-.06.24-.3c.2-.25.41-.51.64-.77l.13-.14c.23-.27.45-.53.7-.78a2.29,2.29,0,0,1,.21-.23c.24-.26.5-.54.84-.87a35.62,35.62,0,0,1,8.62-6.38H13A45,45,0,0,0,0,85.57v4.67H49.81V49.78h0V10h.12L52,10H81l-.51,2.47a35.51,35.51,0,0,1-9.8,18.18,37,37,0,0,1-3.33,3H80.53A44.66,44.66,0,0,0,87,22.9,45.25,45.25,0,0,0,90.52,5.34V.67H40.7Z"/><path class="cls-2" d="M9.34,40.45V9.52L11.8,10a35.62,35.62,0,0,1,18.28,9.8c.34.34.68.7,1,1.06V8.47a45.55,45.55,0,0,0-8.77-4.93A44.92,44.92,0,0,0,4.74,0H0V47H31.09V40.45H9.34Z"/><path class="cls-3" d="M80.52,47V80.7l-2.45-.48a35.64,35.64,0,0,1-18.29-9.79l-.32-.32V82.26a45.14,45.14,0,0,0,25.66,8h4.72V40.45H59.46V47H80.52Z"/></g></g></svg>