<svg xmlns="http://www.w3.org/2000/svg" xmlns:xlink="http://www.w3.org/1999/xlink" viewBox="0 0 151.63 85.47"><defs><style>.cls-1{fill:url(#linear-gradient);}</style><linearGradient id="linear-gradient" y1="42.74" x2="151.63" y2="42.74" gradientUnits="userSpaceOnUse"><stop offset="0"/><stop offset="0.33"/><stop offset="0.52"/><stop offset="0.73"/><stop offset="1"/></linearGradient></defs><g id="Capa_2" data-name="Capa 2"><g id="Objects"><path class="cls-1" d="M151.63,26.18H105.18L128.41,0H23.22L46.44,26.18H0l25.72,29h0L52.59,85.47,75.81,59.29,99,85.47,124.32,57l0,0ZM69.75,5.49,52.59,24.84,35.42,5.49Zm69.68,26.18L122.27,51,105.1,31.67ZM52.59,33.1,69.67,52.37H35.5Zm6.07-1.43H93L75.81,51ZM99,33.1l17.08,19.27H82ZM58.73,26.18,75.81,6.93,92.9,26.18ZM99,24.84,81.87,5.49H116.2ZM46.52,31.67,29.36,51,12.2,31.67ZM69.75,57.85,52.59,77.2,35.42,57.85Zm46.46,0L99,77.2,81.87,57.85Z"/></g></g></svg>