<?xml version="1.0" encoding="utf-8"?>
<!-- Generator: Adobe Illustrator 26.1.0, SVG Export Plug-In . SVG Version: 6.00 Build 0)  -->
<svg version="1.1" id="Capa_1" xmlns="http://www.w3.org/2000/svg" xmlns:xlink="http://www.w3.org/1999/xlink" x="0px" y="0px"
	 viewBox="0 0 151.6 85.5" style="enable-background:new 0 0 151.6 85.5;" xml:space="preserve">
<style type="text/css">
	.st0{fill:#FFFFFF;}
</style>
<g id="Capa_2_00000048480634703429576460000005517164533309370537_">
	<g id="Objects">
		<path class="st0" d="M151.6,26.2h-46.5L128.4,0H23.2l23.2,26.2H0l25.7,29l0,0l26.9,30.3l23.2-26.2L99,85.5L124.3,57l0,0
			L151.6,26.2z M69.8,5.5L52.6,24.8L35.4,5.5H69.8z M139.4,31.7L122.3,51l-17.2-19.3H139.4z M52.6,33.1l17.1,19.3H35.5L52.6,33.1z
			 M58.7,31.7H93L75.8,51L58.7,31.7z M99,33.1l17.1,19.3H82L99,33.1z M58.7,26.2L75.8,6.9l17.1,19.2H58.7z M99,24.8L81.9,5.5h34.3
			L99,24.8z M46.5,31.7L29.4,51L12.2,31.7H46.5z M69.8,57.8L52.6,77.2L35.4,57.8H69.8z M116.2,57.8L99,77.2L81.9,57.8H116.2z"/>
	</g>
</g>
</svg>
