<?xml version="1.0" encoding="utf-8"?>
<!-- Generator: Adobe Illustrator 26.1.0, SVG Export Plug-In . SVG Version: 6.00 Build 0)  -->
<svg version="1.1" id="Capa_1" xmlns="http://www.w3.org/2000/svg" xmlns:xlink="http://www.w3.org/1999/xlink" x="0px" y="0px"
	 viewBox="0 0 90.5 90.2" style="enable-background:new 0 0 90.5 90.2;" xml:space="preserve">
<style type="text/css">
	.st0{fill:#FFFFFF;}
</style>
<g id="Capa_2_00000181795269539088023210000005823321503739769246_">
	<g id="Objects">
		<path class="st0" d="M40.7,78.8v2.1h-0.1v0.1h-31l0.5-2.5c0.1-0.4,0.2-0.9,0.3-1.3s0.2-0.8,0.3-1.2l0.1-0.2l0.1-0.2
			c0.1-0.3,0.2-0.6,0.3-0.9l0,0l0,0c0.1-0.2,0.1-0.5,0.2-0.7s0.2-0.5,0.3-0.8s0.3-0.7,0.4-1s0.2-0.6,0.4-0.9c0-0.1,0.1-0.3,0.2-0.4
			c0.1-0.3,0.2-0.6,0.4-0.8l0.1-0.3c0.1-0.3,0.3-0.5,0.4-0.8c0-0.1,0.1-0.2,0.2-0.3l0,0l0,0l0,0c0.2-0.3,0.4-0.6,0.5-0.9
			s0.3-0.6,0.5-0.8l0.1-0.1c0.1-0.1,0.1-0.2,0.2-0.2l0.1-0.1c0.2-0.3,0.4-0.6,0.6-0.9s0.5-0.7,0.7-1s0.4-0.5,0.6-0.8l0,0l0,0l0-0.1
			l0.2-0.3c0.2-0.2,0.4-0.5,0.6-0.8l0.1-0.1c0.2-0.3,0.5-0.5,0.7-0.8c0.1-0.1,0.1-0.2,0.2-0.2c0.2-0.3,0.5-0.5,0.8-0.9
			c2.5-2.5,5.4-4.7,8.6-6.4H13C4.7,62.5,0,73.8,0,85.6v4.7h49.8V49.8l0,0V10h0.1H52h29l-0.5,2.5c-1.4,6.9-4.8,13.2-9.8,18.2
			c-1,1.1-2.2,2.1-3.3,3h13.2c2.7-3.3,4.8-6.9,6.5-10.8c2.3-5.6,3.5-11.5,3.5-17.6V0.7H40.7V78.8z"/>
		<path class="st0" d="M9.3,40.5V9.5l2.5,0.5c6.9,1.4,13.3,4.8,18.3,9.8c0.3,0.3,0.7,0.7,1,1.1V8.5c-2.7-2-5.7-3.6-8.8-4.9
			C16.8,1.2,10.8,0,4.7,0H0v47h31.1v-6.5H9.3z"/>
		<path class="st0" d="M80.5,47v33.7l-2.4-0.5c-6.9-1.4-13.3-4.8-18.3-9.8l-0.3-0.3v12.2c7.5,5.2,16.5,8,25.7,8h4.7V40.5H59.5V47
			H80.5z"/>
	</g>
</g>
</svg>
