<svg xmlns="http://www.w3.org/2000/svg" xmlns:xlink="http://www.w3.org/1999/xlink" viewBox="0 0 111.2 111.12"><defs><style>.cls-1{fill:url(#linear-gradient);}.cls-2{fill:url(#linear-gradient-2);}</style><linearGradient id="linear-gradient" x1="14.87" y1="62.95" x2="111.2" y2="62.95" gradientUnits="userSpaceOnUse"><stop offset="0"/><stop offset="0.33"/><stop offset="0.52"/><stop offset="0.73"/><stop offset="1"/></linearGradient><linearGradient id="linear-gradient-2" x1="0" y1="35.11" x2="70.22" y2="35.11" xlink:href="#linear-gradient"/></defs><g id="Capa_2" data-name="Capa 2"><g id="Objects"><path class="cls-1" d="M63.74,14.79a34.63,34.63,0,0,1,4.49,8.67,38.17,38.17,0,0,1,4,.74l.65.16.16,0,.84.23h0c.27.07.54.15.8.24s.46.14.69.22.47.15.71.24l.66.23.64.25a39.89,39.89,0,0,1,3.71,1.66c.29.15.58.3.86.46.48.26,1,.52,1.41.8l.6.37.28.17.62.41c.2.12.4.26.59.39a40,40,0,0,1,6.34,5.4c.23.23.45.46.66.7s.34.39.52.58.55.65.82,1,.32.39.47.59l.62.81c.19.26.39.52.57.78s.37.52.55.79c.35.53.7,1.06,1,1.61.17.27.34.55.49.83s.32.56.47.84c.33.61.65,1.22.94,1.85.13.24.24.49.35.74s.22.5.33.75.19.44.28.66.17.42.25.62q.3.78.57,1.59c.11.31.21.61.3.93l0,0c.09.3.18.6.26.89.25.86.46,1.74.65,2.61.05.22.09.45.14.68s.05.25.07.38.07.34.09.51l.12.74c0,.24.08.49.11.74s0,.23,0,.34l.06.55c0,.18,0,.36,0,.53s.06.54.08.81l.06,1c0,.34,0,.68,0,1s0,.68,0,1A39.88,39.88,0,0,1,63,102.78H62l-1,0-1-.07h0l-.94-.08-.8-.09-.49-.06-.7-.11h-.07l-.7-.11-.59-.11c-.29,0-.58-.1-.86-.17a39,39,0,0,1-4.57-1.25l-.87-.31L48.5,100l-1.14-.47c-.23-.1-.47-.2-.71-.32l-.77-.35-1-.48-.8-.42c-.29-.17-.6-.33-.89-.51s-.56-.32-.83-.49c0,0,0,0,0,0-.51-.3-1-.62-1.49-.95L40.77,96q-.39-.25-.78-.54l-.78-.56-.76-.59-.61-.49-1-.8c-.22-.18-.42-.37-.63-.56h0c-.24-.21-.47-.43-.7-.65l-.69-.67c-.44-.44-.87-.89-1.28-1.35L32.92,89c-.41-.48-.82-1-1.2-1.46-.24-.3-.47-.61-.7-.92s-.27-.36-.4-.55l-.13-.18q-.25-.35-.48-.69c-.16-.23-.3-.45-.45-.68s-.42-.65-.62-1q-.48-.8-.93-1.62c-.58-1.06-1.1-2.15-1.58-3.26-.11-.25-.22-.51-.32-.77,0,0,0,0,0,0-.08-.2-.16-.39-.23-.59s-.14-.35-.21-.54l-.2-.57c-.09-.26-.19-.53-.28-.81s-.17-.55-.26-.83a.19.19,0,0,1,0-.08l-.24-.81c-.08-.29-.16-.58-.23-.87-.22-.88-.42-1.77-.58-2.67l-.15-.9c-.05-.3-.1-.6-.13-.91a34.87,34.87,0,0,1-8.69-4.47,48.17,48.17,0,1,0,48.87-49ZM23.38,59.18l.09-.89.12-.87c0-.3.08-.59.13-.88s.1-.58.14-.86c.22-1.15.48-2.29.79-3.4l.24-.83h0l.21-.65a2.76,2.76,0,0,1,.08-.27l.25-.72c.07-.21.14-.42.22-.63l.15-.39c.18-.47.36-.92.56-1.38s.46-1.06.71-1.58l.36-.74c.08-.16.16-.32.25-.47s.19-.37.28-.55l.11-.2c.13-.25.27-.49.41-.73l.39-.66c.11-.19.23-.38.35-.56l.32-.52c.46-.71.94-1.4,1.45-2.08.16-.23.33-.45.51-.68l.4-.51c.4-.5.81-1,1.24-1.47.17-.21.35-.4.53-.6.38-.42.76-.82,1.17-1.22l.49-.48c.25-.25.51-.5.77-.73l.57-.52c.35-.31.71-.61,1.07-.91l.55-.45c.81-.64,1.63-1.24,2.48-1.82.25-.17.49-.33.74-.48l.59-.38.45-.27c.22-.14.44-.27.67-.39s.56-.32.84-.47l.85-.46.86-.43,0,0c.51-.25,1-.48,1.56-.71s.78-.33,1.18-.48.52-.2.79-.3l.7-.25.36-.13.79-.25.93-.28.95-.26.84-.2.64-.14.29-.07.48-.1.85-.15.62-.1.64-.1c.56-.08,1.13-.15,1.69-.2a26.84,26.84,0,0,0-5.59-7.6A48.23,48.23,0,0,0,15.77,53.6,26.91,26.91,0,0,0,23.38,59.18Z"/><path class="cls-2" d="M69.62,28.65A35,35,0,0,0,63,28c-.71,0-1.4,0-2.09.07A26.76,26.76,0,0,1,35.11,61.88,27,27,0,0,1,28.16,61h0q-.06,1-.06,2a34.44,34.44,0,0,0,.65,6.7,35.91,35.91,0,0,0,6.36.57A35.11,35.11,0,0,0,69.62,28.65ZM35.11,0A35.11,35.11,0,0,0,10.05,59.7a53.73,53.73,0,0,1,1.88-11.2A26.77,26.77,0,0,1,48.44,11.9,52.92,52.92,0,0,1,59.63,10,35,35,0,0,0,35.11,0Z"/></g></g></svg>