<?xml version="1.0" encoding="utf-8"?>
<!-- Generator: Adobe Illustrator 26.1.0, SVG Export Plug-In . SVG Version: 6.00 Build 0)  -->
<svg version="1.1" id="Capa_1" xmlns="http://www.w3.org/2000/svg" xmlns:xlink="http://www.w3.org/1999/xlink" x="0px" y="0px"
	 viewBox="0 0 80.8 129.1" style="enable-background:new 0 0 80.8 129.1;" xml:space="preserve">
<style type="text/css">
	.st0{fill:#FFFFFF;}
</style>
<g id="Capa_2_00000089553175751293760790000012469280029838594975_">
	<g id="Objects">
		<path class="st0" d="M0,94.2v28.2l6.1,4.9l0.5-0.4l17-13.7L0,94.2z M3.4,101.3l14.7,11.9l-12,9.7l-2.7-2.2L3.4,101.3z"/>
		<path class="st0" d="M26.9,114.1l-1.1,0.9L8.3,129.1h34.9l1.1-0.9l1.1-0.9l35.4-28.5V70.6L28,113.2L26.9,114.1z M77.4,77.8v19.4
			l-34.1,27.5l-1.1,0.9l-0.2,0.1H18l9.9-8l1.1-0.9l1.1-0.9L77.4,77.8z"/>
		<path class="st0" d="M6.6,91.7l17-13.7L0,58.9v28.2L6.1,92L6.6,91.7z M3.4,85.4V66.1l14.7,11.9l-12,9.7L3.4,85.4z"/>
		<path class="st0" d="M26.9,78.8l-1.1,0.9L8.3,93.8h34.9l1.1-0.9l1.1-0.9l35.4-28.5V35.3L28,77.9L26.9,78.8z M77.4,42.5v19.4
			L43.3,89.4l-1.1,0.9L42,90.4H18l9.9-8l1.1-0.9l1.1-0.9L77.4,42.5z"/>
		<path class="st0" d="M6.6,56.4l17-13.7L0,23.6v28.2l6.1,5L6.6,56.4z M3.4,30.8l14.7,11.9l-12,9.7l-2.7-2.2L3.4,30.8z"/>
		<path class="st0" d="M28,42.7l-1.1,0.9l-1.1,0.9L8.3,58.5h34.9l1.1-0.9l1.1-0.9l35.4-28.5V0L28,42.7z M77.4,26.6L43.3,54.1
			L42.2,55L42,55.1H18l9.9-8l1.1-0.9l1.1-0.9L77.4,7.2V26.6z"/>
	</g>
</g>
</svg>
