<svg xmlns="http://www.w3.org/2000/svg" xmlns:xlink="http://www.w3.org/1999/xlink" viewBox="0 0 80.83 129.09"><defs><style>.cls-1{fill:url(#linear-gradient);}.cls-2{fill:url(#linear-gradient-2);}.cls-3{fill:url(#linear-gradient-3);}.cls-4{fill:url(#linear-gradient-4);}.cls-5{fill:url(#linear-gradient-5);}.cls-6{fill:url(#linear-gradient-6);}</style><linearGradient id="linear-gradient" y1="110.75" x2="23.6" y2="110.75" gradientUnits="userSpaceOnUse"><stop offset="0"/><stop offset="0.33"/><stop offset="0.52"/><stop offset="0.73"/><stop offset="1"/></linearGradient><linearGradient id="linear-gradient-2" x1="8.31" y1="99.83" x2="80.83" y2="99.83" xlink:href="#linear-gradient"/><linearGradient id="linear-gradient-3" y1="75.46" x2="23.6" y2="75.46" xlink:href="#linear-gradient"/><linearGradient id="linear-gradient-4" x1="8.31" y1="64.54" x2="80.83" y2="64.54" xlink:href="#linear-gradient"/><linearGradient id="linear-gradient-5" y1="40.18" x2="23.6" y2="40.18" xlink:href="#linear-gradient"/><linearGradient id="linear-gradient-6" x1="8.31" y1="29.26" x2="80.83" y2="29.26" xlink:href="#linear-gradient"/></defs><g id="Capa_2" data-name="Capa 2"><g id="Objects"><path class="cls-1" d="M0,94.18v28.2l6.13,4.94.46-.37,17-13.73Zm3.43,7.17,14.71,11.87-12,9.7-2.7-2.18Z"/><path class="cls-2" d="M26.88,114.11l-1.09.88L8.31,129.09H43.26l1.09-.88,1.1-.89L80.83,98.77V70.58L28,113.22ZM77.4,77.75V97.13L43.3,124.65l-1.1.89-.15.12H18l9.92-8,1.09-.88,1.09-.88Z"/><path class="cls-3" d="M6.59,91.66l17-13.72L0,58.9V87.09L6.13,92ZM3.43,85.45V66.07L18.14,77.94l-12,9.69Z"/><path class="cls-4" d="M26.88,78.82l-1.1.88L8.31,93.8H43.26l1.09-.88L45.44,92,80.83,63.48V35.29L28,77.94ZM77.4,42.47V61.84L43.28,89.37l-1.08.88-.15.12H18l9.9-8L29,81.49l1.09-.88Z"/><path class="cls-5" d="M6.59,56.37l17-13.72L0,23.61V51.8l6.13,5ZM3.43,30.78,18.14,42.65l-12,9.69-2.7-2.18Z"/><path class="cls-6" d="M28,42.65l-1.09.88-1.1.88L8.31,58.51H43.26l1.09-.88,1.1-.88L80.83,28.2V0ZM77.4,26.56,43.3,54.08,42.2,55l-.15.12H18l9.91-8,1.1-.89,1.09-.88L77.4,7.17Z"/></g></g></svg>